<svg xmlns="http://www.w3.org/2000/svg" viewBox="0 0 100 100">
  <!-- Notepad main body -->
  <rect x="20" y="20" width="60" height="70" 
        stroke="#ff6b35" stroke-width="3" fill="white" rx="2"/>
  
  <!-- Orange header strip -->
  <rect x="20" y="20" width="60" height="12" 
        fill="#ff6b35" rx="2"/>
  <rect x="20" y="32" width="60" height="2" 
        fill="white"/>
  
  <!-- Spiral binding at top -->
  <circle cx="30" cy="15" r="3" stroke="#ff6b35" stroke-width="2" fill="#ff9a56"/>
  <circle cx="42" cy="15" r="3" stroke="#ff6b35" stroke-width="2" fill="#ff9a56"/>
  <circle cx="54" cy="15" r="3" stroke="#ff6b35" stroke-width="2" fill="#ff9a56"/>
  <circle cx="66" cy="15" r="3" stroke="#ff6b35" stroke-width="2" fill="#ff9a56"/>
  
  <!-- Horizontal lines on the notepad -->
  <line x1="28" y1="42" x2="72" y2="42" stroke="#ff6b35" stroke-width="1.5" opacity="0.6"/>
  <line x1="28" y1="52" x2="72" y2="52" stroke="#ff6b35" stroke-width="1.5" opacity="0.6"/>
  <line x1="28" y1="62" x2="72" y2="62" stroke="#ff6b35" stroke-width="1.5" opacity="0.6"/>
  <line x1="28" y1="72" x2="72" y2="72" stroke="#ff6b35" stroke-width="1.5" opacity="0.6"/>
  <line x1="28" y1="82" x2="65" y2="82" stroke="#ff6b35" stroke-width="1.5" opacity="0.6"/>
  
  <!-- Vertical margin line -->
  <line x1="30" y1="34" x2="30" y2="88" stroke="#ff9a56" stroke-width="1.5"/>
  
  <!-- Folded corner with orange -->
  <path d="M 72 82 L 72 90 L 80 90 Z" 
        stroke="#ff6b35" stroke-width="2" fill="#ff9a56"/>
  <line x1="72" y1="82" x2="80" y2="90" stroke="#ff6b35" stroke-width="1"/>
</svg>

